PathFileType	4	(X/Y/Z)	c:/Users/goper/Files/vsCode/490R/osim_files/C12/C12_SSWS_03.trc
DataRate	CameraRate	NumFrames	NumMarkers	Units                	OrigDataRate	OrigDataStartFrame	OrigNumFrames
120.00	120.00	4	36	mm	120.0	840	1343
                Frame#	Time	LPSIS			LASIS			LTH1			LTH2			LTH3			LTH4			LLFE			LMFE			LSH1			LSH2			LSH3			LSH4			LLMAL			LMMAL			LCAL			LMTP5			LTOE			LMTP1			RPSIS			RASIS			RTH1			RTH2			RTH3			RTH4			RLFE			RMFE			RSH1			RSH2			RSH3			RSH4			RLMAL			RMMAL			RCAL			RMTP1			RTOE			RMTP5		
		X1	Y1	Z1	X2	Y2	Z2	X3	Y3	Z3	X4	Y4	Z4	X5	Y5	Z5	X6	Y6	Z6	X7	Y7	Z7	X8	Y8	Z8	X9	Y9	Z9	X10	Y10	Z10	X11	Y11	Z11	X12	Y12	Z12	X13	Y13	Z13	X14	Y14	Z14	X15	Y15	Z15	X16	Y16	Z16	X17	Y17	Z17	X18	Y18	Z18	X19	Y19	Z19	X20	Y20	Z20	X21	Y21	Z21	X22	Y22	Z22	X23	Y23	Z23	X24	Y24	Z24	X25	Y25	Z25	X26	Y26	Z26	X27	Y27	Z27	X28	Y28	Z28	X29	Y29	Z29	X30	Y30	Z30	X31	Y31	Z31	X32	Y32	Z32	X33	Y33	Z33	X34	Y34	Z34	X35	Y35	Z35	X36	Y36	Z36

840	6.99167	-1029.64465	1039.75293	312.76541	-1204.68506	1000.91803	386.57315	-1093.12244	721.89172	439.19543	-1097.67480	676.96771	440.85721	-1153.20190	724.40814	453.41019	-1150.40308	678.96387	453.75897	-1128.04248	499.29504	431.99692	-1155.25232	478.34537	308.94879	-1026.81274	475.72357	440.16483	-988.64191	447.56088	445.39886	-1059.44043	425.11588	443.87796	-1015.66699	404.01642	446.12234	-759.94983	273.05170	389.09473	-782.55676	255.60699	313.21350	-741.68811	326.79099	343.31467	-701.51129	130.64467	392.58347	-754.52386	85.21371	337.70142	-735.49774	113.39374	289.39023	-1026.00745	1042.31458	197.27625	-1214.30127	1021.70551	130.62442	-1202.02356	733.50488	79.16706	-1221.21948	693.23132	90.89577	-1260.80823	754.44928	89.14114	-1271.01819	708.63586	96.05437	-1284.21741	528.40167	139.93195	-1268.99658	536.02502	272.35669	-1230.27466	427.99554	116.54559	-1233.88000	384.85886	113.04807	-1292.19006	423.34479	130.95615	-1285.39246	381.58469	123.59275	-1238.69922	99.68823	169.26746	-1252.49878	111.92511	252.24986	-1164.33521	63.69490	208.15091	-1379.67139	50.16957	249.97765	-1420.02637	72.40618	216.85045	-1386.08887	44.49538	141.43059
841	7.00000	-1040.73950	1041.25415	312.70660	-1215.34326	1003.42749	385.44116	-1109.02869	723.71710	439.23505	-1114.72412	678.86249	440.95914	-1168.76208	726.99103	453.50662	-1167.19836	682.18011	454.30316	-1150.82666	502.07819	433.06494	-1177.22668	482.05795	309.22260	-1050.34827	478.08322	439.96863	-1012.74426	449.40244	445.51175	-1082.97180	427.38211	444.29181	-1039.14612	406.33340	446.53683	-782.44336	276.57657	388.58423	-805.19409	259.71918	312.91296	-758.92413	332.14038	343.37125	-727.27881	133.47929	393.58484	-781.17975	88.88477	338.60999	-760.91174	116.11739	290.16702	-1037.03125	1044.41040	197.31279	-1225.15808	1024.10571	129.38216	-1208.53516	734.30286	78.37674	-1226.90125	693.98279	90.08244	-1267.79932	754.53967	87.69813	-1277.15112	708.54486	94.54547	-1288.26147	528.32434	138.87961	-1273.86646	536.10736	271.38135	-1232.35046	428.37076	116.54989	-1235.45935	385.30908	112.94024	-1294.39783	423.09396	129.98759	-1287.01807	381.32169	122.58248	-1239.04663	99.82989	169.22060	-1253.09558	111.84000	251.85251	-1164.68152	64.17303	208.14958	-1379.86877	50.01711	249.93790	-1420.32947	71.89822	216.67549	-1386.24402	44.25227	141.39731
842	7.00833	-1051.70972	1043.22766	312.44791	-1227.02136	1006.45618	384.50287	-1125.14563	725.76709	438.73080	-1131.58105	680.94257	440.92859	-1184.48584	730.37128	453.79355	-1183.99988	685.49316	454.56848	-1173.67322	505.14755	433.86050	-1199.23145	485.81714	309.67505	-1073.71838	480.80969	440.50150	-1035.89050	452.22357	446.01694	-1105.95764	430.22711	444.77554	-1062.32385	409.13611	446.88333	-805.86060	279.56354	387.92960	-828.22992	263.25565	312.48947	-783.84998	333.51468	342.27133	-755.22913	135.17253	394.87125	-810.14319	92.04227	339.12692	-787.99078	118.16694	290.69489	-1047.97778	1046.71680	197.22832	-1236.12268	1026.69287	128.32208	-1215.15100	735.34625	77.84743	-1233.13611	695.16339	88.70860	-1274.35107	754.54608	86.08408	-1283.24500	708.50446	93.27544	-1292.00525	528.28650	137.95039	-1278.12024	536.02124	270.46777	-1234.18774	428.95221	116.53542	-1236.76733	385.71381	112.93530	-1296.37769	422.95404	128.91763	-1288.47778	381.30264	121.73353	-1239.45752	99.96011	169.19476	-1253.54602	112.16853	251.74513	-1164.84009	64.68213	208.06105	-1380.07507	49.90889	249.85918	-1420.57825	71.40479	216.47191	-1386.46985	44.14156	141.32651
843	7.01667	-1062.86121	1045.61829	312.18491	-1238.54797	1009.70148	383.40668	-1140.53210	727.34253	438.17618	-1150.47876	682.01703	440.39261	-1199.98206	733.84778	454.16153	-1201.39539	688.87256	454.40567	-1196.22668	508.41891	434.71594	-1221.26965	489.51263	310.12579	-1096.41333	484.05603	440.94403	-1058.74683	455.45853	446.24478	-1128.93298	433.35715	445.20850	-1085.22168	412.35019	447.13983	-829.71899	281.75693	387.23578	-852.01514	266.37814	311.66080	-804.53912	333.83508	340.82883	-784.90198	135.89404	396.30731	-840.30743	94.58059	339.29691	-815.68134	119.33335	291.86160	-1058.87024	1049.25488	197.10318	-1246.84875	1029.35767	127.38398	-1221.66296	736.48718	77.35041	-1237.57690	695.32526	89.37501	-1281.19312	754.99384	85.08504	-1289.46460	708.76532	92.39074	-1295.23157	528.31006	136.97403	-1282.53296	536.12317	269.55765	-1236.00195	429.48151	116.46631	-1238.12793	386.29404	112.72865	-1298.22754	422.96906	127.94205	-1289.81604	381.38361	120.91439	-1239.91772	100.22330	169.16714	-1253.98792	112.85593	251.92781	-1164.45789	65.91092	207.82596	-1380.31384	49.76590	249.77173	-1420.90308	70.93027	216.33360	-1386.72241	44.15953	141.26163
